<svg width="18" height="18" viewBox="0 0 20 19" fill="none" xmlns="http://www.w3.org/2000/svg">
<path d="M19.706 3.292L16.707 0.293001C16.6143 0.199958 16.5041 0.126171 16.3828 0.0758854C16.2614 0.0256001 16.1313 -0.000189449 16 1.04767e-06H4C3.86866 -0.000189449 3.73857 0.0256001 3.61724 0.0758854C3.4959 0.126171 3.38571 0.199958 3.293 0.293001L0.294003 3.292C0.20057 3.38468 0.12647 3.49498 0.0760019 3.61652C0.0255333 3.73805 -0.000299338 3.8684 2.61685e-06 4V17C2.61685e-06 18.103 0.897003 19 2 19H18C19.103 19 20 18.103 20 17V4C20.0003 3.8684 19.9745 3.73805 19.924 3.61652C19.8735 3.49498 19.7994 3.38468 19.706 3.292ZM4.414 2H15.586L16.586 3H3.414L4.414 2ZM2 17V5H18L18.002 17H2Z" fill="#9CA3AF"/>
<path d="M12 7H8V10H5L10 15L15 10H12V7Z" fill="#9CA3AF"/>
</svg>
