<svg width="17" height="18" viewBox="0 0 19 21" fill="none" xmlns="http://www.w3.org/2000/svg">
<mask id="path-1-inside-1" fill="white">
<path d="M6.06055 8.27295C6.06055 7.72067 6.50826 7.27295 7.06055 7.27295H7.48479C8.03707 7.27295 8.48479 7.72066 8.48479 8.27295V15.9699C8.48479 16.5222 8.03707 16.9699 7.48479 16.9699H7.06055C6.50826 16.9699 6.06055 16.5222 6.06055 15.9699V8.27295Z"/>
</mask>
<path d="M6.06055 8.27295C6.06055 7.72067 6.50826 7.27295 7.06055 7.27295H7.48479C8.03707 7.27295 8.48479 7.72066 8.48479 8.27295V15.9699C8.48479 16.5222 8.03707 16.9699 7.48479 16.9699H7.06055C6.50826 16.9699 6.06055 16.5222 6.06055 15.9699V8.27295Z" fill="#9CA3AF"/>
<path d="M7.06055 10.2729H7.48479V4.27295H7.06055V10.2729ZM5.48479 8.27295V15.9699H11.4848V8.27295H5.48479ZM7.48479 13.9699H7.06055V19.9699H7.48479V13.9699ZM9.06055 15.9699V8.27295H3.06055V15.9699H9.06055ZM7.06055 13.9699C8.16512 13.9699 9.06055 14.8653 9.06055 15.9699H3.06055C3.06055 18.1791 4.85141 19.9699 7.06055 19.9699V13.9699ZM5.48479 15.9699C5.48479 14.8654 6.38022 13.9699 7.48479 13.9699V19.9699C9.69393 19.9699 11.4848 18.1791 11.4848 15.9699H5.48479ZM7.48479 10.2729C6.38022 10.2729 5.48479 9.37752 5.48479 8.27295H11.4848C11.4848 6.06381 9.69393 4.27295 7.48479 4.27295V10.2729ZM7.06055 4.27295C4.85141 4.27295 3.06055 6.06381 3.06055 8.27295H9.06055C9.06055 9.37752 8.16512 10.2729 7.06055 10.2729V4.27295Z" fill="#9CA3AF" mask="url(#path-1-inside-1)"/>
<mask id="path-3-inside-2" fill="white">
<path d="M9.69702 8.27295C9.69702 7.72067 10.1447 7.27295 10.697 7.27295H11.1213C11.6735 7.27295 12.1213 7.72066 12.1213 8.27295V15.9699C12.1213 16.5222 11.6735 16.9699 11.1213 16.9699H10.697C10.1447 16.9699 9.69702 16.5222 9.69702 15.9699V8.27295Z"/>
</mask>
<path d="M9.69702 8.27295C9.69702 7.72067 10.1447 7.27295 10.697 7.27295H11.1213C11.6735 7.27295 12.1213 7.72066 12.1213 8.27295V15.9699C12.1213 16.5222 11.6735 16.9699 11.1213 16.9699H10.697C10.1447 16.9699 9.69702 16.5222 9.69702 15.9699V8.27295Z" fill="#9CA3AF"/>
<path d="M10.697 10.2729H11.1213V4.27295H10.697V10.2729ZM9.12126 8.27295V15.9699H15.1213V8.27295H9.12126ZM11.1213 13.9699H10.697V19.9699H11.1213V13.9699ZM12.697 15.9699V8.27295H6.69702V15.9699H12.697ZM10.697 13.9699C11.8016 13.9699 12.697 14.8653 12.697 15.9699H6.69702C6.69702 18.1791 8.48788 19.9699 10.697 19.9699V13.9699ZM9.12126 15.9699C9.12126 14.8654 10.0167 13.9699 11.1213 13.9699V19.9699C13.3304 19.9699 15.1213 18.1791 15.1213 15.9699H9.12126ZM11.1213 10.2729C10.0167 10.2729 9.12126 9.37752 9.12126 8.27295H15.1213C15.1213 6.06381 13.3304 4.27295 11.1213 4.27295V10.2729ZM10.697 4.27295C8.48788 4.27295 6.69702 6.06381 6.69702 8.27295H12.697C12.697 9.37752 11.8016 10.2729 10.697 10.2729V4.27295Z" fill="#9CA3AF" mask="url(#path-3-inside-2)"/>
<mask id="path-5-inside-3" fill="white">
<path d="M1 4.84863C0.447715 4.84863 0 4.40092 0 3.84863L0 3.42439C0 2.87211 0.447715 2.42439 1 2.42439L17.1818 2.42439C17.7341 2.42439 18.1818 2.87211 18.1818 3.42439V3.84863C18.1818 4.40092 17.7341 4.84863 17.1818 4.84863L1 4.84863Z"/>
</mask>
<path d="M1 4.84863C0.447715 4.84863 0 4.40092 0 3.84863L0 3.42439C0 2.87211 0.447715 2.42439 1 2.42439L17.1818 2.42439C17.7341 2.42439 18.1818 2.87211 18.1818 3.42439V3.84863C18.1818 4.40092 17.7341 4.84863 17.1818 4.84863L1 4.84863Z" fill="#9CA3AF"/>
<path d="M3 3.84863V3.42439L-3 3.42439V3.84863L3 3.84863ZM1 5.42439L17.1818 5.42439V-0.57561L1 -0.57561L1 5.42439ZM15.1818 3.42439V3.84863L21.1818 3.84863V3.42439L15.1818 3.42439ZM17.1818 1.84863L1 1.84863L1 7.84863L17.1818 7.84863V1.84863ZM15.1818 3.84863C15.1818 2.74406 16.0772 1.84863 17.1818 1.84863V7.84863C19.391 7.84863 21.1818 6.05777 21.1818 3.84863L15.1818 3.84863ZM17.1818 5.42439C16.0772 5.42439 15.1818 4.52896 15.1818 3.42439L21.1818 3.42439C21.1818 1.21525 19.391 -0.57561 17.1818 -0.57561V5.42439ZM3 3.42439C3 4.52896 2.10457 5.42439 1 5.42439L1 -0.57561C-1.20914 -0.57561 -3 1.21525 -3 3.42439L3 3.42439ZM-3 3.84863C-3 6.05777 -1.20914 7.84863 1 7.84863L1 1.84863C2.10457 1.84863 3 2.74406 3 3.84863L-3 3.84863Z" fill="#9CA3AF" mask="url(#path-5-inside-3)"/>
<mask id="path-7-inside-4" fill="white">
<path d="M6.06055 0H12.1212V1.51515H6.06055V0Z"/>
</mask>
<path d="M6.06055 0H12.1212V1.51515H6.06055V0Z" fill="#9CA3AF"/>
<path d="M6.06055 0V-3H3.06055V0H6.06055ZM12.1212 0H15.1212V-3H12.1212V0ZM12.1212 1.51515V4.51515H15.1212V1.51515H12.1212ZM6.06055 1.51515H3.06055V4.51515H6.06055V1.51515ZM6.06055 3H12.1212V-3H6.06055V3ZM9.12115 0V1.51515H15.1212V0H9.12115ZM12.1212 -1.48485H6.06055V4.51515H12.1212V-1.48485ZM9.06055 1.51515V0H3.06055V1.51515H9.06055Z" fill="#9CA3AF" mask="url(#path-7-inside-4)"/>
<path d="M2.42432 4.24219V18.9998C2.42432 19.552 2.87203 19.9998 3.42432 19.9998H14.7576C15.3099 19.9998 15.7576 19.552 15.7576 18.9998V4.24219" stroke="#9CA3AF" stroke-width="2"/>
</svg>
