<svg width="14" height="12" viewBox="0 0 14 12" fill="none" xmlns="http://www.w3.org/2000/svg">
<path d="M0.292444 0.293965C0.19974 0.386478 0.126193 0.496367 0.0760112 0.617341C0.0258297 0.738314 0 0.867996 0 0.998965C0 1.12993 0.0258297 1.25962 0.0760112 1.38059C0.126193 1.50156 0.19974 1.61145 0.292444 1.70396L4.17244 5.58396L0.292444 9.46396C0.199862 9.55655 0.126422 9.66646 0.0763168 9.78742C0.0262119 9.90839 0.000423432 10.038 0.000423431 10.169C0.00042343 10.2999 0.0262119 10.4295 0.0763168 10.5505C0.126422 10.6715 0.199862 10.7814 0.292444 10.874C0.385026 10.9665 0.494936 11.04 0.615901 11.0901C0.736865 11.1402 0.866514 11.166 0.997444 11.166C1.12837 11.166 1.25802 11.1402 1.37899 11.0901C1.49995 11.04 1.60986 10.9665 1.70244 10.874L6.29244 6.28396C6.38515 6.19145 6.45869 6.08156 6.50888 5.96059C6.55906 5.83962 6.58489 5.70993 6.58489 5.57896C6.58489 5.448 6.55906 5.31831 6.50888 5.19734C6.45869 5.07637 6.38515 4.96648 6.29244 4.87396L1.71244 0.293965C1.32244 -0.0960352 0.682444 -0.0960352 0.292444 0.293965Z" fill="#9CA3AF"/>
<path d="M6.88253 0.293762C6.78983 0.386276 6.71628 0.496165 6.6661 0.617138C6.61592 0.738111 6.59009 0.867794 6.59009 0.998762C6.59009 1.12973 6.61592 1.25941 6.6661 1.38039C6.71628 1.50136 6.78983 1.61125 6.88253 1.70376L10.7625 5.58376L6.88253 9.46376C6.69555 9.65074 6.59051 9.90433 6.59051 10.1688C6.59051 10.4332 6.69555 10.6868 6.88253 10.8738C7.06951 11.0607 7.32311 11.1658 7.58753 11.1658C7.85196 11.1658 8.10555 11.0607 8.29253 10.8738L12.8825 6.28376C12.9752 6.19125 13.0488 6.08136 13.099 5.96039C13.1491 5.83941 13.175 5.70973 13.175 5.57876C13.175 5.44779 13.1491 5.31811 13.099 5.19714C13.0488 5.07616 12.9752 4.96628 12.8825 4.87376L8.29253 0.283762C7.91253 -0.0962379 7.27253 -0.0962377 6.88253 0.293762Z" fill="#9CA3AF"/>
</svg>
