<svg width="20" height="16" viewBox="0 0 27 16" fill="none" xmlns="http://www.w3.org/2000/svg">
<path d="M1.01424 0.000100007C0.881731 -0.00177404 0.750168 0.0227073 0.6272 0.072121C0.504231 0.121535 0.39231 0.194895 0.29794 0.28794C0.203571 0.380984 0.128635 0.491857 0.0774869 0.614114C0.0263392 0.736371 0 0.867575 0 1.0001C0 1.13263 0.0263392 1.26383 0.0774869 1.38609C0.128635 1.50834 0.203571 1.61922 0.29794 1.71226C0.39231 1.8053 0.504231 1.87867 0.6272 1.92808C0.750168 1.97749 0.881731 2.00197 1.01424 2.0001H25.0142C25.1468 2.00197 25.2783 1.97749 25.4013 1.92808C25.5243 1.87867 25.6362 1.8053 25.7305 1.71226C25.8249 1.61922 25.8999 1.50834 25.951 1.38609C26.0021 1.26383 26.0285 1.13263 26.0285 1.0001C26.0285 0.867575 26.0021 0.736371 25.951 0.614114C25.8999 0.491857 25.8249 0.380984 25.7305 0.28794C25.6362 0.194895 25.5243 0.121535 25.4013 0.072121C25.2783 0.0227073 25.1468 -0.00177404 25.0142 0.000100007H1.01424ZM1.01424 7.0001C0.881731 6.99823 0.750168 7.02271 0.6272 7.07212C0.504231 7.12153 0.39231 7.1949 0.29794 7.28794C0.203571 7.38098 0.128635 7.49186 0.0774869 7.61411C0.0263392 7.73637 0 7.86758 0 8.0001C0 8.13263 0.0263392 8.26383 0.0774869 8.38609C0.128635 8.50834 0.203571 8.61922 0.29794 8.71226C0.39231 8.8053 0.504231 8.87867 0.6272 8.92808C0.750168 8.97749 0.881731 9.00197 1.01424 9.0001H25.0142C25.1468 9.00197 25.2783 8.97749 25.4013 8.92808C25.5243 8.87867 25.6362 8.8053 25.7305 8.71226C25.8249 8.61922 25.8999 8.50834 25.951 8.38609C26.0021 8.26383 26.0285 8.13263 26.0285 8.0001C26.0285 7.86758 26.0021 7.73637 25.951 7.61411C25.8999 7.49186 25.8249 7.38098 25.7305 7.28794C25.6362 7.1949 25.5243 7.12153 25.4013 7.07212C25.2783 7.02271 25.1468 6.99823 25.0142 7.0001H1.01424ZM1.01424 14.0001C0.881731 13.9982 0.750168 14.0227 0.6272 14.0721C0.504231 14.1215 0.39231 14.1949 0.29794 14.2879C0.203571 14.381 0.128635 14.4919 0.0774869 14.6141C0.0263392 14.7364 0 14.8676 0 15.0001C0 15.1326 0.0263392 15.2638 0.0774869 15.3861C0.128635 15.5083 0.203571 15.6192 0.29794 15.7123C0.39231 15.8053 0.504231 15.8787 0.6272 15.9281C0.750168 15.9775 0.881731 16.002 1.01424 16.0001H25.0142C25.1468 16.002 25.2783 15.9775 25.4013 15.9281C25.5243 15.8787 25.6362 15.8053 25.7305 15.7123C25.8249 15.6192 25.8999 15.5083 25.951 15.3861C26.0021 15.2638 26.0285 15.1326 26.0285 15.0001C26.0285 14.8676 26.0021 14.7364 25.951 14.6141C25.8999 14.4919 25.8249 14.381 25.7305 14.2879C25.6362 14.1949 25.5243 14.1215 25.4013 14.0721C25.2783 14.0227 25.1468 13.9982 25.0142 14.0001H1.01424Z" fill="black"/>
</svg>
