<svg width="24" height="26" viewBox="0 0 24 26" fill="none" xmlns="http://www.w3.org/2000/svg">
<path d="M11.2569 3.12899L15.7862 5.30718C16.0109 5.4109 16.0974 5.6875 15.9936 5.91223C15.9591 5.99867 15.8726 6.06782 15.7862 6.11968L11.3952 8.34973C11.2569 8.41888 11.1186 8.41888 10.9803 8.34973L6.45107 6.17154C6.22634 6.06782 6.1399 5.79122 6.24362 5.56649C6.2782 5.48005 6.36464 5.4109 6.45107 5.35904L10.842 3.12899C10.9803 3.05984 11.1359 3.05984 11.2569 3.12899ZM11.2915 11.4269L22.0096 5.98138C22.2343 5.86037 22.3208 5.60106 22.1997 5.37633C22.1479 5.28989 22.0787 5.22074 21.9923 5.18617L11.3779 0.0518617C11.2569 -0.0172872 11.1013 -0.0172872 10.963 0.0518617L0.244957 5.49734C0.0202231 5.61835 -0.0662142 5.87766 0.0547965 6.10239C0.106658 6.18883 0.175809 6.25798 0.262245 6.30984L10.8939 11.4269C11.0149 11.4787 11.1705 11.4787 11.2915 11.4269ZM20.2981 15.3511C20.2117 17.2181 19.1918 18.9122 17.5841 19.863C16.0973 20.6237 14.8872 19.8457 14.8872 18.117C14.9737 16.25 15.9936 14.5558 17.6013 13.6051C19.088 12.8444 20.2981 13.6223 20.2981 15.3511ZM23.4617 20.0186V7.90026C23.4617 7.65824 23.2543 7.4508 22.995 7.4508C22.9258 7.4508 22.8567 7.46809 22.7875 7.50266L11.9657 13.0346C11.8101 13.1037 11.7237 13.2593 11.7237 13.4322V25.5505C11.7237 25.7926 11.9311 26 12.1904 26C12.2596 26 12.3287 25.9827 12.3979 25.9481L23.2197 20.4335C23.3753 20.3471 23.4617 20.1915 23.4617 20.0186ZM6.74496 21.0904L1.86996 18.7566C1.64522 18.6529 1.55878 18.3763 1.66251 18.1516C1.67979 18.1343 1.6798 18.117 1.69708 18.0997L4.13458 14.5213C4.27288 14.3138 4.56676 14.262 4.77421 14.4003C4.84336 14.4521 4.91251 14.5213 4.94708 14.6077L7.38458 20.5199C7.48831 20.7447 7.38458 21.004 7.15985 21.1077C7.00427 21.1596 6.86597 21.1596 6.74496 21.0904Z" fill="#1F7CE0"/>
</svg>
