<svg width="19" height="19" viewBox="0 0 19 19" fill="none" xmlns="http://www.w3.org/2000/svg">
<path d="M18.5144 2.35389L17.0472 0.580556C16.7622 0.221667 16.3294 0 15.8333 0H3.16667C2.67056 0 2.23778 0.221667 1.94222 0.580556L0.485556 2.35389C0.179444 2.71278 0 3.18778 0 3.69444V16.8889C0 18.05 0.95 19 2.11111 19H16.8889C18.05 19 19 18.05 19 16.8889V3.69444C19 3.18778 18.8206 2.71278 18.5144 2.35389ZM3.42 2.11111H15.58L16.4561 3.16667H2.55444L3.42 2.11111ZM2.11111 16.8889V5.27778H16.8889V16.8889H2.11111ZM5.27778 11.6111H7.96944V14.7778H11.0306V11.6111H13.7222L9.5 7.38889L5.27778 11.6111Z" fill="#9CA3AF"/>
</svg>
